{"level":"info","message":"sever started on port 3001"}
{"level":"info","message":"stderr: ffmpeg version N-92202-gf72b9904fe Copyright (c) 2000-2018 the FFmpeg developers\r\n  built with gcc 8.2.1 (GCC) 20181017\r\n  configuration: --enable-gpl --enable-version3 --enable-sdl2 --enable-fontconfig --enable-gnutls --enable-iconv --enable-libass --enable-libbluray --enable-libfreetype --enable-libmp3lame --enable-libopencore-amrnb --enable-libopencore-amrwb --enable-libopenjpeg --enable-libopus --enable-libshine --enable-libsnappy --enable-libsoxr --enable-libtheora --enable-libtwolame --enable-libvpx --enable-libwavpack --enable-libwebp --enable-libx264 --enable-libx265 --enable-libxml2 --enable-libzimg --enable-lzma --enable-zlib --enable-gmp --enable-libvidstab --enable-libvorbis --enable-libvo-amrwbenc --enable-libmysofa --enable-libspeex --enable-libxvid --enable-libaom --enable-libmfx --enable-amf --enable-ffnvcodec --enable-cuvid --enable-d3d11va --enable-nvenc --enable-nvdec --enable-dxva2 --enable-avisynth\r\n"}
{"level":"info","message":"stderr:   libavutil      56. 19.101 / 56. 19.101\r\n  libavcodec     58. 33.101 / 58. 33.101\r\n  libavformat    58. 19.100 / 58. 19.100\r\n  libavdevice    58.  4.105 / 58.  4.105\r\n  libavfilter     7. 33.101 /  7. 33.101\r\n  libswscale      5.  2.100 /  5.  2.100\r\n  libswresample   3.  2.100 /  3.  2.100\r\n  libpostproc    55.  2.100 / 55.  2.100\r\n"}
{"level":"info","message":"stderr: [h264 @ 0000003e3b38fbc0] Invalid NAL unit 0, skipping.\r\n"}
{"level":"info","message":"stderr:     Last me"}
{"level":"info","message":"stderr: ssage repeated 1 times\r\n[h264 @ 0000003e3b38fbc0] non-existing PPS 0 referenced\r\n    Last message repeated 1 times\r\n[h264 @ 0000003e3b38fbc0] decode_slice_header error\r\n[h264 @ 0000003e3b38fbc0] no frame!\r\n"}
{"level":"info","message":"stderr: Input #0, rtsp, from 'rtsp://admin:123456@192.168.2.5:554/media/video1':\r\n  Metadata:\r\n    title           : VCP IPC Realtime stream\r\n  Duration: N/A, start: 0.000000, bitrate: N/A\r\n"}
{"level":"info","message":"stderr:     Stream #0:0: Video: h264 (High), yuv420p(progressive), 1920x1080, 25 fps, 25 tbr, 90k tbn, 50 tbc\r\n    Stream #0:1: Data: none\r\n[h264 @ 0000003e3bb6e200] Invalid NAL unit 0, skipping.\r\n"}
{"level":"info","message":"stderr: Stream mapping:\r\n  Stream #0:0 -> #0:0 (h264 (native) -> mjpeg (native))\r\nPress [q] to stop, [?] for help\r\n"}
{"level":"info","message":"stderr: [h264 @ 0000003e3bb6e200] non-existing PPS 0 referenced\r\n[h264 @ 0000003e3bb6e200] decode_slice_header error\r\n[h264 @ 0000003e3bb6e200] no frame!\r\n"}
{"level":"info","message":"stderr: Error while decoding stream #0:0: Invalid data found when processing input\r\n"}
{"level":"info","message":"stderr: [swscaler @ 0000003e3de6cd40] deprecated pixel format used, make sure you did set range correctly\r\n"}
{"level":"info","message":"stderr: Output #0, image2pipe, to 'pipe:':\r\n  Metadata:\r\n    title           : VCP IPC Realtime stream\r\n    encoder         : "}
{"level":"info","message":"stderr: Lavf58.19.100\r\n    Stream #0:0: Video: mjpeg, yuvj420p(pc), 1920x1080, q=2-31, 200 kb/s, 0.50 fps, 0.50 tbn, 0.50 tbc\r\n    Metadata:\r\n      encoder         : Lavc58.33.101 mjpeg\r\n    Side data:\r\n      cpb: bitrate max/min/avg: 0/0/200000 buffer size: 0 vbv_delay: -1\r\n"}
{"level":"info","message":"stderr: frame=    0 fps=0.0 q=0.0 size=       0kB time=00:00:00.00 bitrate=N/A speed=   0x    \r"}
{"level":"info","message":"stderr: frame=    0 fps=0.0 q=0.0 size=       0kB time=00:00:00.00 bitrate=N/A speed=   0x    \r"}
{"level":"info","message":"stderr: frame=    0 fps=0.0 q=0.0 size=       0kB time=00:00:00.00 bitrate=N/A speed=   0x    \r"}
{"level":"info","message":"stderr: frame=    1 fps=0.5 q=6.8 size=      71kB time=00:00:02.00 bitrate= 289.6kbits/s speed=0.963x    \r"}
{"level":"info","message":"stderr: frame=    1 fps=0.4 q=6.8 size=      71kB time=00:00:02.00 bitrate= 289.6kbits/s speed=0.773x    \r"}
{"level":"info","message":"stderr: frame=    1 fps=0.3 q=6.8 size=      71kB time=00:00:02.00 bitrate= 289.6kbits/s speed=0.644x    \r"}
{"level":"info","message":"stderr: frame=    1 fps=0.3 q=6.8 size=      71kB time=00:00:02.00 bitrate= 289.6kbits/s speed=0.551x    \r"}
{"level":"info","message":"stderr: frame=    2 fps=0.5 q=4.8 size=     155kB time=00:00:04.00 bitrate= 318.0kbits/s speed=0.965x    \r"}
{"level":"info","message":"stderr: frame=    2 fps=0.4 q=4.8 size=     155kB time=00:00:04.00 bitrate= 318.0kbits/s speed=0.857x    \r"}
{"level":"info","message":"stderr: frame=    2 fps=0.4 q=4.8 size=     155kB time=00:00:04.00 bitrate= 318.0kbits/s speed=0.771x    \r"}
{"level":"info","message":"stderr: frame=    2 fps=0.4 q=4.8 size=     155kB time=00:00:04.00 bitrate= 318.0kbits/s speed=0.701x    \r"}
{"level":"info","message":"stderr: frame=    3 fps=0.5 q=2.5 size=     267kB time=00:00:06.00 bitrate= 364.4kbits/s speed=0.964x    \r"}
{"level":"info","message":"stderr: frame=    3 fps=0.4 q=2.5 size=     267kB time=00:00:06.00 bitrate= 364.4kbits/s speed=0.889x    \r"}
{"level":"info","message":"stderr: frame=    3 fps=0.4 q=2.5 size=     267kB time=00:00:06.00 bitrate= 364.4kbits/s speed=0.826x    \r"}
{"level":"info","message":"stderr: frame=    3 fps=0.4 q=2.5 size=     267kB time=00:00:06.00 bitrate= 364.4kbits/s speed=0.771x    \r"}
{"level":"info","message":"stderr: frame=    4 fps=0.5 q=1.6 size=     415kB time=00:00:08.00 bitrate= 425.0kbits/s speed=0.963x    \r"}
{"level":"info","message":"stderr: frame=    4 fps=0.5 q=1.6 size=     415kB time=00:00:08.00 bitrate= 425.0kbits/s speed=0.907x    \r"}
{"level":"info","message":"stderr: frame=    4 fps=0.4 q=1.6 size=     415kB time=00:00:08.00 bitrate= 425.0kbits/s speed=0.856x    \r"}
{"level":"info","message":"stderr: frame=    4 fps=0.4 q=1.6 size=     415kB time=00:00:08.00 bitrate= 425.0kbits/s speed=0.811x    \r"}
{"level":"info","message":"stderr: frame=    5 fps=0.5 q=1.7 size=     563kB time=00:00:10.00 bitrate= 461.6kbits/s speed=0.963x    \r"}
{"level":"info","message":"stderr: frame=    5 fps=0.5 q=1.7 size=     563kB time=00:00:10.00 bitrate= 461.6kbits/s speed=0.917x    \r"}
{"level":"info","message":"stderr: frame=    5 fps=0.4 q=1.7 size=     563kB time=00:00:10.00 bitrate= 461.6kbits/s speed=0.875x    \r"}
{"level":"info","message":"stderr: frame=    6 fps=0.5 q=3.2 size=     675kB time=00:00:12.00 bitrate= 460.6kbits/s speed=   1x    \r"}
{"level":"info","message":"stderr: frame=    6 fps=0.5 q=3.2 size=     675kB time=00:00:12.00 bitrate= 460.6kbits/s speed=0.963x    \r"}
{"level":"info","message":"stderr: frame=    6 fps=0.5 q=3.2 size=     675kB time=00:00:12.00 bitrate= 460.6kbits/s speed=0.924x    \r"}
{"level":"info","message":"stderr: frame=    6 fps=0.4 q=3.2 size=     675kB time=00:00:12.00 bitrate= 460.6kbits/s speed=0.889x    \r"}
{"level":"info","message":"stderr: frame=    7 fps=0.5 q=5.5 size=     759kB time=00:00:14.00 bitrate= 444.4kbits/s speed=0.998x    \r"}
{"level":"info","message":"stderr: frame=    7 fps=0.5 q=5.5 size=     759kB time=00:00:14.00 bitrate= 444.4kbits/s speed=0.962x    \r"}
{"level":"info","message":"stderr: frame=    7 fps=0.5 q=5.5 size=     759kB time=00:00:14.00 bitrate= 444.4kbits/s speed=0.929x    \r"}
{"level":"info","message":"stderr: frame=    7 fps=0.4 q=5.5 size=     759kB time=00:00:14.00 bitrate= 444.4kbits/s speed=0.898x    \r"}
{"level":"info","message":"stderr: frame=    8 fps=0.5 q=8.1 size=     825kB time=00:00:16.00 bitrate= 422.6kbits/s speed=0.993x    \r"}
{"level":"info","message":"stderr: frame=    8 fps=0.5 q=8.1 size=     825kB time=00:00:16.00 bitrate= 422.6kbits/s speed=0.962x    \r"}
{"level":"info","message":"stderr: frame=    8 fps=0.5 q=8.1 size=     825kB time=00:00:16.00 bitrate= 422.6kbits/s speed=0.933x    \r"}
{"level":"info","message":"stderr: frame=    8 fps=0.5 q=8.1 size=     825kB time=00:00:16.00 bitrate= 422.6kbits/s speed=0.906x    \r"}
{"level":"info","message":"stderr: frame=    9 fps=0.5 q=10.9 size=     883kB time=00:00:18.00 bitrate= 401.8kbits/s speed=0.991x    \r"}
{"level":"info","message":"stderr: frame=    9 fps=0.5 q=10.9 size=     883kB time=00:00:18.00 bitrate= 401.8kbits/s speed=0.963x    \r"}
{"level":"info","message":"stderr: frame=    9 fps=0.5 q=10.9 size=     883kB time=00:00:18.00 bitrate= 401.8kbits/s speed=0.937x    \r"}
{"level":"info","message":"stderr: frame=    9 fps=0.5 q=10.9 size=     883kB time=00:00:18.00 bitrate= 401.8kbits/s speed=0.912x    \r"}
{"level":"info","message":"stderr: frame=   10 fps=0.5 q=13.8 size=     935kB time=00:00:20.00 bitrate= 383.1kbits/s speed=0.987x    \r"}
{"level":"info","message":"stderr: frame=   10 fps=0.5 q=13.8 size=     935kB time=00:00:20.00 bitrate= 383.1kbits/s speed=0.962x    \r"}
{"level":"info","message":"stderr: frame=   10 fps=0.5 q=13.8 size=     935kB time=00:00:20.00 bitrate= 383.1kbits/s speed=0.939x    \r"}
{"level":"info","message":"stderr: frame=   10 fps=0.5 q=13.8 size=     935kB time=00:00:20.00 bitrate= 383.1kbits/s speed=0.916x    \r"}
{"level":"info","message":"stderr: frame=   11 fps=0.5 q=16.8 size=     984kB time=00:00:22.00 bitrate= 366.5kbits/s speed=0.984x    \r"}
{"level":"info","message":"stderr: frame=   11 fps=0.5 q=16.8 size=     984kB time=00:00:22.00 bitrate= 366.5kbits/s speed=0.962x    \r"}
{"level":"info","message":"stderr: frame=   11 fps=0.5 q=16.8 size=     984kB time=00:00:22.00 bitrate= 366.5kbits/s speed=0.941x    \r"}
{"level":"info","message":"stderr: frame=   11 fps=0.5 q=16.8 size=     984kB time=00:00:22.00 bitrate= 366.5kbits/s speed=0.92x    \r"}
{"level":"info","message":"stderr: frame=   12 fps=0.5 q=19.7 size=    1031kB time=00:00:24.00 bitrate= 351.8kbits/s speed=0.983x    \r"}
{"level":"info","message":"stderr: frame=   12 fps=0.5 q=19.7 size=    1031kB time=00:00:24.00 bitrate= 351.8kbits/s speed=0.962x    \r"}
{"level":"info","message":"stderr: frame=   12 fps=0.5 q=19.7 size=    1031kB time=00:00:24.00 bitrate= 351.8kbits/s speed=0.942x    \r"}
{"level":"info","message":"stderr: frame=   13 fps=0.5 q=22.7 size=    1075kB time=00:00:26.00 bitrate= 338.7kbits/s speed=   1x    \r"}
{"level":"info","message":"stderr: frame=   13 fps=0.5 q=22.7 size=    1075kB time=00:00:26.00 bitrate= 338.7kbits/s speed=0.981x    \r"}
{"level":"info","message":"stderr: frame=   13 fps=0.5 q=22.7 size=    1075kB time=00:00:26.00 bitrate= 338.7kbits/s speed=0.962x    \r"}
{"level":"info","message":"stderr: frame=   13 fps=0.5 q=22.7 size=    1075kB time=00:00:26.00 bitrate= 338.7kbits/s speed=0.944x    \r"}
{"level":"info","message":"stderr: frame=   14 fps=0.5 q=24.8 size=    1118kB time=00:00:28.00 bitrate= 327.2kbits/s speed=0.998x    \r"}
{"level":"info","message":"child process exited with code null"}
{"level":"info","message":"sever started on port 3001"}
{"level":"info","message":"stderr: ffmpeg version N-92202-gf72b9904fe Copyright (c) 2000-2018 the FFmpeg developers\r\n  built with gcc 8.2.1 (GCC) 20181017\r\n  configuration: --enable-gpl --enable-version3 --enable-sdl2 --enable-fontconfig --enable-gnutls --enable-iconv --enable-libass --enable-libbluray --enable-libfreetype --enable-libmp3lame --enable-libopencore-amrnb --enable-libopencore-amrwb --enable-libopenjpeg --enable-libopus --enable-libshine --enable-libsnappy --enable-libsoxr --enable-libtheora --enable-libtwolame --enable-libvpx --enable-libwavpack --enable-libwebp --enable-libx264 --enable-libx265 --enable-libxml2 --enable-libzimg --enable-lzma --enable-zlib --enable-gmp --enable-libvidstab --enable-libvorbis --enable-libvo-amrwbenc --enable-libmysofa --enable-libspeex --enable-libxvid --enable-libaom --enable-libmfx --enable-amf --enable-ffnvcodec --enable-cuvid --enable-d3d11va --enable-nvenc --enable-nvdec --enable-dxva2 --enable-avisynth\r\n"}
{"level":"info","message":"stderr:   libavutil      56. 19.101 / 56. 19.101\r\n  libavcodec     58. 33.101 / 58. 33.101\r\n  libavformat    58. 19.100 / 58. 19.100\r\n  libavdevice    58.  4.105 / 58.  4.105\r\n  libavfilter     7. 33.101 /  7. 33.101\r\n  libswscale      5.  2.100 /  5.  2.100\r\n  libswresample   3.  2.100 /  3.  2.100\r\n  libpostproc    55.  2.100 / 55.  2.100\r\n"}
{"level":"info","message":"stderr: [h264 @ 000000efd30afc40] Invalid NAL unit 0, skipping.\r\n"}
{"level":"info","message":"stderr:     Last message repeated 1"}
{"level":"info","message":"stderr:  times\r\nInput #0, rtsp, from 'rtsp://admin:123456@192.168.2.5:554/media/video1':\r\n  Metadata:\r\n    title           : VCP IPC Realtime stream\r\n  Duration: N/A, start: 0.000000, bitrate: N/A\r\n    Stream #0:0: Video: h264 (High), yuv420p(progressive), 1920x1080, 25 fps, 25 tbr, 90k tbn, 50 tbc\r\n    Stream #0:1: Data: none\r\n[h264 @ 000000efd3e3a180] Invalid NAL unit 0, skipping.\r\n"}
{"level":"info","message":"stderr: Stream mapping:\r\n  Stream #0:0 -> #0:0 (h264 (native) -> mjpeg (native))\r\nPress [q] to stop, [?] for help\r\n"}
{"level":"info","message":"stderr: [swscaler @ 000000efd5b33e40] deprecated pixel format used, make sure you did set range correctly\r\n"}
{"level":"info","message":"stderr: Output #0, image2pipe, to 'pipe:':\r\n  Metadata:\r\n    title           : VCP IPC Realtime strea"}
{"level":"info","message":"stderr: m\r\n    encoder         : Lavf58.19.100\r\n    Stream #0:0: Video: mjpeg, yuvj420p(pc), 1920x1080, q=2-31, 200 kb/s, 0.50 fps, 0.50 tbn, 0.50 tbc\r\n    Metadata:\r\n      encoder         : Lavc58.33.101 mjpeg\r\n    Side data:\r\n      cpb: bitrate max/min/avg: 0/0/200000 buffer size: 0 vbv_delay: -1\r\n"}
{"level":"info","message":"stderr: frame=    0 fps=0.0 q=0.0 size=       0kB time=00:00:00.00 bitrate=N/A speed=   0x    \r"}
{"level":"info","message":"stderr: frame=    0 fps=0.0 q=0.0 size=       0kB time=00:00:00.00 bitrate=N/A speed=   0x    \r"}
{"level":"info","message":"stderr: frame=    0 fps=0.0 q=0.0 size=       0kB time=00:00:00.00 bitrate=N/A speed=   0x    \r"}
{"level":"info","message":"stderr: frame=    1 fps=0.5 q=6.8 size=      71kB time=00:00:02.00 bitrate= 289.1kbits/s speed=0.98x    \r"}
{"level":"info","message":"stderr: frame=    1 fps=0.4 q=6.8 size=      71kB time=00:00:02.00 bitrate= 289.1kbits/s speed=0.786x    \r"}
{"level":"info","message":"stderr: frame=    1 fps=0.3 q=6.8 size=      71kB time=00:00:02.00 bitrate= 289.1kbits/s speed=0.656x    \r"}
{"level":"info","message":"stderr: frame=    1 fps=0.3 q=6.8 size=      71kB time=00:00:02.00 bitrate= 289.1kbits/s speed=0.559x    \r"}
{"level":"info","message":"stderr: frame=    2 fps=0.5 q=4.8 size=     155kB time=00:00:04.00 bitrate= 317.9kbits/s speed=0.978x    \r"}
{"level":"info","message":"stderr: frame=    2 fps=0.4 q=4.8 size=     155kB time=00:00:04.00 bitrate= 317.9kbits/s speed=0.867x    \r"}
{"level":"info","message":"stderr: frame=    2 fps=0.4 q=4.8 size=     155kB time=00:00:04.00 bitrate= 317.9kbits/s speed=0.779x    \r"}
{"level":"info","message":"stderr: frame=    2 fps=0.4 q=4.8 size=     155kB time=00:00:04.00 bitrate= 317.9kbits/s speed=0.707x    \r"}
{"level":"info","message":"stderr: frame=    3 fps=0.5 q=2.5 size=     303kB time=00:00:06.00 bitrate= 413.9kbits/s speed=0.972x    \r"}
{"level":"info","message":"stderr: frame=    3 fps=0.4 q=2.5 size=     303kB time=00:00:06.00 bitrate= 413.9kbits/s speed=0.895x    \r"}
{"level":"info","message":"stderr: frame=    3 fps=0.4 q=2.5 size=     303kB time=00:00:06.00 bitrate= 413.9kbits/s speed=0.831x    \r"}
{"level":"info","message":"stderr: frame=    3 fps=0.4 q=2.5 size=     303kB time=00:00:06.00 bitrate= 413.9kbits/s speed=0.775x    \r"}
{"level":"info","message":"stderr: frame=    4 fps=0.5 q=1.6 size=     451kB time=00:00:08.00 bitrate= 462.2kbits/s speed=0.969x    \r"}
{"level":"info","message":"stderr: frame=    4 fps=0.5 q=1.6 size=     451kB time=00:00:08.00 bitrate= 462.2kbits/s speed=0.912x    \r"}
{"level":"info","message":"stderr: frame=    4 fps=0.4 q=1.6 size=     451kB time=00:00:08.00 bitrate= 462.2kbits/s speed=0.86x    \r"}
{"level":"info","message":"stderr: frame=    4 fps=0.4 q=1.6 size=     451kB time=00:00:08.00 bitrate= 462.2kbits/s speed=0.815x    \r"}
{"level":"info","message":"stderr: frame=    5 fps=0.5 q=2.0 size=     599kB time=00:00:10.00 bitrate= 491.0kbits/s speed=0.967x    \r"}
{"level":"info","message":"stderr: frame=    5 fps=0.5 q=2.0 size=     599kB time=00:00:10.00 bitrate= 491.0kbits/s speed=0.921x    \r"}
{"level":"info","message":"stderr: frame=    5 fps=0.4 q=2.0 size=     599kB time=00:00:10.00 bitrate= 491.0kbits/s speed=0.879x    \r"}
{"level":"info","message":"stderr: frame=    5 fps=0.4 q=2.0 size=     599kB time=00:00:10.00 bitrate= 491.0kbits/s speed=0.841x    \r"}
{"level":"info","message":"stderr: frame=    6 fps=0.5 q=3.8 size=     694kB time=00:00:12.00 bitrate= 473.7kbits/s speed=0.967x    \r"}
{"level":"info","message":"stderr: frame=    6 fps=0.5 q=3.8 size=     694kB time=00:00:12.00 bitrate= 473.7kbits/s speed=0.927x    \r"}
{"level":"info","message":"stderr: frame=    6 fps=0.4 q=3.8 size=     694kB time=00:00:12.00 bitrate= 473.7kbits/s speed=0.891x    \r"}
{"level":"info","message":"stderr: frame=    7 fps=0.5 q=6.2 size=     770kB time=00:00:14.00 bitrate= 450.8kbits/s speed=   1x    \r"}
{"level":"info","message":"stderr: frame=    7 fps=0.5 q=6.2 size=     770kB time=00:00:14.00 bitrate= 450.8kbits/s speed=0.966x    \r"}
{"level":"info","message":"stderr: frame=    7 fps=0.5 q=6.2 size=     770kB time=00:00:14.00 bitrate= 450.8kbits/s speed=0.933x    \r"}
{"level":"info","message":"stderr: frame=    7 fps=0.5 q=6.2 size=     770kB time=00:00:14.00 bitrate= 450.8kbits/s speed=0.901x    \r"}
{"level":"info","message":"stderr: frame=    8 fps=0.5 q=8.9 size=     833kB time=00:00:16.00 bitrate= 426.5kbits/s speed=0.996x    \r"}
{"level":"info","message":"stderr: frame=    8 fps=0.5 q=8.9 size=     833kB time=00:00:16.00 bitrate= 426.5kbits/s speed=0.965x    \r"}
{"level":"info","message":"stderr: frame=    8 fps=0.5 q=8.9 size=     833kB time=00:00:16.00 bitrate= 426.5kbits/s speed=0.936x    \r"}
{"level":"info","message":"stderr: frame=    8 fps=0.5 q=8.9 size=     833kB time=00:00:16.00 bitrate= 426.5kbits/s speed=0.909x    \r"}
{"level":"info","message":"stderr: frame=    9 fps=0.5 q=11.8 size=     888kB time=00:00:18.00 bitrate= 404.4kbits/s speed=0.992x    \r"}
{"level":"info","message":"stderr: frame=    9 fps=0.5 q=11.8 size=     888kB time=00:00:18.00 bitrate= 404.4kbits/s speed=0.965x    \r"}
{"level":"info","message":"stderr: frame=    9 fps=0.5 q=11.8 size=     888kB time=00:00:18.00 bitrate= 404.4kbits/s speed=0.938x    \r"}
{"level":"info","message":"stderr: frame=    9 fps=0.5 q=11.8 size=     888kB time=00:00:18.00 bitrate= 404.4kbits/s speed=0.914x    \r"}
{"level":"info","message":"stderr: frame=   10 fps=0.5 q=14.7 size=     940kB time=00:00:20.00 bitrate= 384.9kbits/s speed=0.989x    \r"}
{"level":"info","message":"stderr: frame=   10 fps=0.5 q=14.7 size=     940kB time=00:00:20.00 bitrate= 384.9kbits/s speed=0.964x    \r"}
{"level":"info","message":"stderr: frame=   10 fps=0.5 q=14.7 size=     940kB time=00:00:20.00 bitrate= 384.9kbits/s speed=0.941x    \r"}
{"level":"info","message":"stderr: frame=   10 fps=0.5 q=14.7 size=     940kB time=00:00:20.00 bitrate= 384.9kbits/s speed=0.919x    \r"}
{"level":"info","message":"stderr: frame=   11 fps=0.5 q=17.7 size=     988kB time=00:00:22.00 bitrate= 367.8kbits/s speed=0.987x    \r"}
{"level":"info","message":"stderr: frame=   11 fps=0.5 q=17.7 size=     988kB time=00:00:22.00 bitrate= 367.8kbits/s speed=0.964x    \r"}
{"level":"info","message":"stderr: frame=   11 fps=0.5 q=17.7 size=     988kB time=00:00:22.00 bitrate= 367.8kbits/s speed=0.943x    \r"}
{"level":"info","message":"stderr: frame=   11 fps=0.5 q=17.7 size=     988kB time=00:00:22.00 bitrate= 367.8kbits/s speed=0.922x    \r"}
{"level":"info","message":"stderr: frame=   12 fps=0.5 q=20.6 size=    1033kB time=00:00:24.00 bitrate= 352.7kbits/s speed=0.985x    \r"}
{"level":"info","message":"stderr: frame=   12 fps=0.5 q=20.6 size=    1033kB time=00:00:24.00 bitrate= 352.7kbits/s speed=0.964x    \r"}
{"level":"info","message":"stderr: frame=   12 fps=0.5 q=20.6 size=    1033kB time=00:00:24.00 bitrate= 352.7kbits/s speed=0.945x    \r"}
{"level":"info","message":"stderr: frame=   12 fps=0.5 q=20.6 size=    1033kB time=00:00:24.00 bitrate= 352.7kbits/s speed=0.925x    \r"}
{"level":"info","message":"stderr: frame=   13 fps=0.5 q=23.6 size=    1077kB time=00:00:26.00 bitrate= 339.4kbits/s speed=0.983x    \r"}
{"level":"info","message":"stderr: frame=   13 fps=0.5 q=23.6 size=    1077kB time=00:00:26.00 bitrate= 339.4kbits/s speed=0.964x    \r"}
{"level":"info","message":"stderr: frame=   13 fps=0.5 q=23.6 size=    1077kB time=00:00:26.00 bitrate= 339.4kbits/s speed=0.946x    \r"}
{"level":"info","message":"stderr: frame=   14 fps=0.5 q=24.8 size=    1120kB time=00:00:28.00 bitrate= 327.8kbits/s speed=0.999x    \r"}
{"level":"info","message":"child process exited with code null"}
